<?xml version="1.0" encoding="UTF-8" standalone="no"?>
<!DOCTYPE svg PUBLIC "-//W3C//DTD SVG 1.1//EN" "http://www.w3.org/Graphics/SVG/1.1/DTD/svg11.dtd">
<!-- Generated by graphviz version 2.28.0 (20110705.1713)
 -->
<!-- Title: G Pages: 1 -->
<svg xmlns="http://www.w3.org/2000/svg" xmlns:xlink="http://www.w3.org/1999/xlink" width="668pt" height="726pt">
<g id="viewport" class="graph" transform="scale(1 1) rotate(0) translate(4 722)">
<title>G</title>
<polygon fill="white" stroke="white" points="-4,5 -4,-722 665,-722 665,5 -4,5"/>
<g id="graph2" class="cluster"><title>cluster_default</title>
<polyline fill="none" stroke="gray" points="252,-44 640,-44 "/>
<path fill="none" stroke="gray" d="M640,-44C646,-44 652,-50 652,-56"/>
<polyline fill="none" stroke="gray" points="652,-56 652,-698 "/>
<path fill="none" stroke="gray" d="M652,-698C652,-704 646,-710 640,-710"/>
<polyline fill="none" stroke="gray" points="640,-710 252,-710 "/>
<path fill="none" stroke="gray" d="M252,-710C246,-710 240,-704 240,-698"/>
<polyline fill="none" stroke="gray" points="240,-698 240,-56 "/>
<path fill="none" stroke="gray" d="M240,-56C240,-50 246,-44 252,-44"/>
<text text-anchor="middle" x="446" y="-697.2" font-family="Times,serif" font-size="11.00" fill="gray">default</text>
</g>
<!-- _quipComment_mysql -->
<g id="node2" class="node"><title>_quipComment_mysql</title>
<a xlink:href="_mysql_quipcomment.class.html" xlink:title="quipComment_mysql" target="_parent">
<polygon fill="none" stroke="black" points="616.5,-682 485.5,-682 485.5,-646 616.5,-646 616.5,-682"/>
<text text-anchor="middle" x="551" y="-661.2" font-family="Courier New" font-size="11.00">quipComment_mysql</text>
</a>
</g>
<!-- _quipComment -->
<g id="node7" class="node"><title>_quipComment</title>
<a xlink:href="_quipcomment.class.html" xlink:title="quipComment" target="_parent">
<polygon fill="none" stroke="black" points="362.5,-628 271.5,-628 271.5,-592 362.5,-592 362.5,-628"/>
<text text-anchor="middle" x="317" y="-607.2" font-family="Courier New" font-size="11.00">quipComment</text>
</a>
</g>
<!-- _quipComment_mysql&#45;&gt;_quipComment -->
<g id="edge3" class="edge"><title>_quipComment_mysql-&gt;_quipComment</title>
<path fill="none" stroke="black" d="M485.375,-648.958C450.017,-640.728 406.678,-630.641 372.96,-622.792"/>
<polygon fill="none" stroke="black" points="373.357,-619.291 362.824,-620.433 371.77,-626.109 373.357,-619.291"/>
</g>
<!-- _quipCommentClosure_mysql -->
<g id="node3" class="node"><title>_quipCommentClosure_mysql</title>
<a xlink:href="_mysql_quipcommentclosure.class.html" xlink:title="quipCommentClosure_mysql" target="_parent">
<polygon fill="none" stroke="black" points="640.5,-142 461.5,-142 461.5,-106 640.5,-106 640.5,-142"/>
<text text-anchor="middle" x="551" y="-121.2" font-family="Courier New" font-size="11.00">quipCommentClosure_mysql</text>
</a>
</g>
<!-- _quipCommentClosure -->
<g id="node8" class="node"><title>_quipCommentClosure</title>
<a xlink:href="_quipcommentclosure.class.html" xlink:title="quipCommentClosure" target="_parent">
<polygon fill="none" stroke="black" points="386,-196 248,-196 248,-160 386,-160 386,-196"/>
<text text-anchor="middle" x="317" y="-175.2" font-family="Courier New" font-size="11.00">quipCommentClosure</text>
</a>
</g>
<!-- _quipCommentClosure_mysql&#45;&gt;_quipCommentClosure -->
<g id="edge5" class="edge"><title>_quipCommentClosure_mysql-&gt;_quipCommentClosure</title>
<path fill="none" stroke="black" d="M472.425,-142.056C447.88,-147.769 420.749,-154.084 396.163,-159.807"/>
<polygon fill="none" stroke="black" points="395.106,-156.459 386.16,-162.135 396.693,-163.277 395.106,-156.459"/>
</g>
<!-- _quipCommentNotify_mysql -->
<g id="node4" class="node"><title>_quipCommentNotify_mysql</title>
<a xlink:href="_mysql_quipcommentnotify.class.html" xlink:title="quipCommentNotify_mysql" target="_parent">
<polygon fill="none" stroke="black" points="637,-520 465,-520 465,-484 637,-484 637,-520"/>
<text text-anchor="middle" x="551" y="-499.2" font-family="Courier New" font-size="11.00">quipCommentNotify_mysql</text>
</a>
</g>
<!-- _quipCommentNotify -->
<g id="node9" class="node"><title>_quipCommentNotify</title>
<a xlink:href="_quipcommentnotify.class.html" xlink:title="quipCommentNotify" target="_parent">
<polygon fill="none" stroke="black" points="382.5,-574 251.5,-574 251.5,-538 382.5,-538 382.5,-574"/>
<text text-anchor="middle" x="317" y="-553.2" font-family="Courier New" font-size="11.00">quipCommentNotify</text>
</a>
</g>
<!-- _quipCommentNotify_mysql&#45;&gt;_quipCommentNotify -->
<g id="edge7" class="edge"><title>_quipCommentNotify_mysql-&gt;_quipCommentNotify</title>
<path fill="none" stroke="black" d="M472.425,-520.056C446.725,-526.038 418.188,-532.68 392.708,-538.611"/>
<polygon fill="none" stroke="black" points="391.683,-535.256 382.736,-540.932 393.269,-542.074 391.683,-535.256"/>
</g>
<!-- _quipThread_mysql -->
<g id="node5" class="node"><title>_quipThread_mysql</title>
<a xlink:href="_mysql_quipthread.class.html" xlink:title="quipThread_mysql" target="_parent">
<polygon fill="none" stroke="black" points="613.5,-304 488.5,-304 488.5,-268 613.5,-268 613.5,-304"/>
<text text-anchor="middle" x="551" y="-283.2" font-family="Courier New" font-size="11.00">quipThread_mysql</text>
</a>
</g>
<!-- _quipThread -->
<g id="node11" class="node"><title>_quipThread</title>
<a xlink:href="_quipthread.class.html" xlink:title="quipThread" target="_parent">
<polygon fill="none" stroke="black" points="359,-250 275,-250 275,-214 359,-214 359,-250"/>
<text text-anchor="middle" x="317" y="-229.2" font-family="Courier New" font-size="11.00">quipThread</text>
</a>
</g>
<!-- _quipThread_mysql&#45;&gt;_quipThread -->
<g id="edge9" class="edge"><title>_quipThread_mysql-&gt;_quipThread</title>
<path fill="none" stroke="black" d="M488.437,-271.671C451.295,-263.025 404.522,-252.139 369.375,-243.958"/>
<polygon fill="none" stroke="black" points="369.86,-240.477 359.327,-241.619 368.273,-247.295 369.86,-240.477"/>
</g>
<!-- _Quip -->
<g id="node6" class="node"><title>_Quip</title>
<a xlink:href="_quip.class.html" xlink:title="Quip" target="_parent">
<polygon fill="none" stroke="black" points="578,-466 524,-466 524,-430 578,-430 578,-466"/>
<text text-anchor="middle" x="551" y="-445.2" font-family="Courier New" font-size="11.00">Quip</text>
</a>
</g>
<!-- _xPDOSimpleObject -->
<g id="node23" class="node"><title>_xPDOSimpleObject</title>
<ellipse fill="none" stroke="black" cx="88" cy="-583" rx="87.9851" ry="18"/>
<text text-anchor="middle" x="88" y="-579.3" font-family="Times,serif" font-size="14.00" fill="gray">\xPDOSimpleObject</text>
</g>
<!-- _quipComment&#45;&gt;_xPDOSimpleObject -->
<g id="edge11" class="edge"><title>_quipComment-&gt;_xPDOSimpleObject</title>
<path fill="none" stroke="black" d="M271.423,-604.698C243.808,-601.413 207.432,-597.087 174.433,-593.162"/>
<polygon fill="none" stroke="black" points="174.658,-589.664 164.314,-591.958 173.831,-596.615 174.658,-589.664"/>
</g>
<!-- _xPDOObject -->
<g id="node25" class="node"><title>_xPDOObject</title>
<ellipse fill="none" stroke="black" cx="88" cy="-205" rx="61.99" ry="18"/>
<text text-anchor="middle" x="88" y="-201.3" font-family="Times,serif" font-size="14.00" fill="gray">\xPDOObject</text>
</g>
<!-- _quipCommentClosure&#45;&gt;_xPDOObject -->
<g id="edge13" class="edge"><title>_quipCommentClosure-&gt;_xPDOObject</title>
<path fill="none" stroke="black" d="M247.893,-186.101C218.687,-189.575 184.681,-193.619 155.64,-197.074"/>
<polygon fill="none" stroke="black" points="155.108,-193.612 145.591,-198.269 155.935,-200.563 155.108,-193.612"/>
</g>
<!-- _quipCommentNotify&#45;&gt;_xPDOSimpleObject -->
<g id="edge15" class="edge"><title>_quipCommentNotify-&gt;_xPDOSimpleObject</title>
<path fill="none" stroke="black" d="M251.255,-563.701C227.307,-566.549 199.785,-569.823 174.29,-572.855"/>
<polygon fill="none" stroke="black" points="173.774,-569.392 164.257,-574.049 174.6,-576.343 173.774,-569.392"/>
</g>
<!-- _quipHooks -->
<g id="node10" class="node"><title>_quipHooks</title>
<a xlink:href="_quiphooks.class.html" xlink:title="quipHooks" target="_parent">
<polygon fill="none" stroke="black" points="589.5,-412 512.5,-412 512.5,-376 589.5,-376 589.5,-412"/>
<text text-anchor="middle" x="551" y="-391.2" font-family="Courier New" font-size="11.00">quipHooks</text>
</a>
</g>
<!-- _quipThread&#45;&gt;_xPDOObject -->
<g id="edge17" class="edge"><title>_quipThread-&gt;_xPDOObject</title>
<path fill="none" stroke="black" d="M274.892,-227.111C241.701,-223.163 194.334,-217.529 155.722,-212.936"/>
<polygon fill="none" stroke="black" points="155.94,-209.437 145.597,-211.732 155.113,-216.388 155.94,-209.437"/>
</g>
<!-- _QuipTreeParser -->
<g id="node12" class="node"><title>_QuipTreeParser</title>
<a xlink:href="_quiptreeparser.class.html" xlink:title="QuipTreeParser" target="_parent">
<polygon fill="none" stroke="black" points="606.5,-358 495.5,-358 495.5,-322 606.5,-322 606.5,-358"/>
<text text-anchor="middle" x="551" y="-337.2" font-family="Courier New" font-size="11.00">QuipTreeParser</text>
</a>
</g>
<!-- _QuipControllerRequest -->
<g id="node13" class="node"><title>_QuipControllerRequest</title>
<a xlink:href="_request_quipcontrollerrequest.class.html" xlink:title="QuipControllerRequest" target="_parent">
<polygon fill="none" stroke="black" points="630,-88 472,-88 472,-52 630,-52 630,-88"/>
<text text-anchor="middle" x="551" y="-67.2" font-family="Courier New" font-size="11.00">QuipControllerRequest</text>
</a>
</g>
<!-- _modRequest -->
<g id="node29" class="node"><title>_modRequest</title>
<ellipse fill="none" stroke="black" cx="317" cy="-18" rx="59.5901" ry="18"/>
<text text-anchor="middle" x="317" y="-14.3" font-family="Times,serif" font-size="14.00" fill="gray">\modRequest</text>
</g>
<!-- _QuipControllerRequest&#45;&gt;_modRequest -->
<g id="edge19" class="edge"><title>_QuipControllerRequest-&gt;_modRequest</title>
<path fill="none" stroke="black" d="M471.779,-52.4677C440.242,-45.3992 404.524,-37.3934 375.454,-30.8777"/>
<polygon fill="none" stroke="black" points="375.99,-27.4111 365.467,-28.6391 374.459,-34.2416 375.99,-27.4111"/>
</g>
<!-- _quipComment_sqlsrv -->
<g id="node14" class="node"><title>_quipComment_sqlsrv</title>
<a xlink:href="_sqlsrv_quipcomment.class.html" xlink:title="quipComment_sqlsrv" target="_parent">
<polygon fill="none" stroke="black" points="620,-628 482,-628 482,-592 620,-592 620,-628"/>
<text text-anchor="middle" x="551" y="-607.2" font-family="Courier New" font-size="11.00">quipComment_sqlsrv</text>
</a>
</g>
<!-- _quipComment_sqlsrv&#45;&gt;_quipComment -->
<g id="edge21" class="edge"><title>_quipComment_sqlsrv-&gt;_quipComment</title>
<path fill="none" stroke="black" d="M481.96,-610C447.214,-610 405.499,-610 372.842,-610"/>
<polygon fill="none" stroke="black" points="372.577,-606.5 362.577,-610 372.577,-613.5 372.577,-606.5"/>
</g>
<!-- _quipCommentClosure_sqlsrv -->
<g id="node15" class="node"><title>_quipCommentClosure_sqlsrv</title>
<a xlink:href="_sqlsrv_quipcommentclosure.class.html" xlink:title="quipCommentClosure_sqlsrv" target="_parent">
<polygon fill="none" stroke="black" points="643.5,-196 458.5,-196 458.5,-160 643.5,-160 643.5,-196"/>
<text text-anchor="middle" x="551" y="-175.2" font-family="Courier New" font-size="11.00">quipCommentClosure_sqlsrv</text>
</a>
</g>
<!-- _quipCommentClosure_sqlsrv&#45;&gt;_quipCommentClosure -->
<g id="edge23" class="edge"><title>_quipCommentClosure_sqlsrv-&gt;_quipCommentClosure</title>
<path fill="none" stroke="black" d="M458.307,-178C437.815,-178 416.263,-178 396.367,-178"/>
<polygon fill="none" stroke="black" points="396.128,-174.5 386.128,-178 396.128,-181.5 396.128,-174.5"/>
</g>
<!-- _quipCommentNotify_sqlsrv -->
<g id="node16" class="node"><title>_quipCommentNotify_sqlsrv</title>
<a xlink:href="_sqlsrv_quipcommentnotify.class.html" xlink:title="quipCommentNotify_sqlsrv" target="_parent">
<polygon fill="none" stroke="black" points="640.5,-574 461.5,-574 461.5,-538 640.5,-538 640.5,-574"/>
<text text-anchor="middle" x="551" y="-553.2" font-family="Courier New" font-size="11.00">quipCommentNotify_sqlsrv</text>
</a>
</g>
<!-- _quipCommentNotify_sqlsrv&#45;&gt;_quipCommentNotify -->
<g id="edge25" class="edge"><title>_quipCommentNotify_sqlsrv-&gt;_quipCommentNotify</title>
<path fill="none" stroke="black" d="M461.298,-556C438.77,-556 414.786,-556 393.013,-556"/>
<polygon fill="none" stroke="black" points="392.849,-552.5 382.849,-556 392.849,-559.5 392.849,-552.5"/>
</g>
<!-- _quipThread_sqlsrv -->
<g id="node17" class="node"><title>_quipThread_sqlsrv</title>
<a xlink:href="_sqlsrv_quipthread.class.html" xlink:title="quipThread_sqlsrv" target="_parent">
<polygon fill="none" stroke="black" points="616.5,-250 485.5,-250 485.5,-214 616.5,-214 616.5,-250"/>
<text text-anchor="middle" x="551" y="-229.2" font-family="Courier New" font-size="11.00">quipThread_sqlsrv</text>
</a>
</g>
<!-- _quipThread_sqlsrv&#45;&gt;_quipThread -->
<g id="edge27" class="edge"><title>_quipThread_sqlsrv-&gt;_quipThread</title>
<path fill="none" stroke="black" d="M485.375,-232C448.802,-232 403.69,-232 369.519,-232"/>
<polygon fill="none" stroke="black" points="369.287,-228.5 359.287,-232 369.287,-235.5 369.287,-228.5"/>
</g>
</g>
<script xlink:href="js/SVGPan.js"/></svg>
